<svg xmlns="http://www.w3.org/2000/svg" xmlns:xlink="http://www.w3.org/1999/xlink" version="1.1" id="Your_Icon" x="0px" y="0px" width="100px" height="100px" viewBox="0 0 100 100" enable-background="new 0 0 100 100" xml:space="preserve">
<g>
	<path d="M98.217,20.158c-0.552-0.087-13.673-2.137-21.041-2.137c-1.237,0-2.269-0.147-3.086-0.032   C69.342,18.661,56.44,22,51.819,23h-0.013c-0.136,0-0.35-0.332-0.601-0.516c-0.594-0.613-1.537-1.078-2.685-1.078   c-0.699,0-1.388,0.254-2.045,0.654c-1.268,0.772-6.412,4.364-8.403,5.75c-0.697-0.169-1.695-0.322-2.935-0.322   c-2.711,0-5.491,0.763-8.263,2.255c-6.398,3.448-11.89,8.311-12.102,8.5c-1.532,1.33-3.734,4.502-2.267,7.953   c0.945,2.225,0.77,2.764-0.747,5.108C10.111,53.852,2.131,66.84,1.369,68.082c-1.259,1.705-2.11,4.258-0.436,5.971   c1.326,1.355,4.998,2.809,6.123,3.234c3.16,1.133,16.779,5.127,17.324,5.287c0.117,0.037,1.188,0.359,2.656,0.359c0,0,0,0,0.001,0   c1.856,0,4.513-0.51,6.625-2.934c2.912-3.348,11.827-14.887,12.192-15.359c0.096-0.121,2.233-2.875,1.884-6.346l0.003-0.008   c0.755-0.352,1.679-1.027,2.686-2.295c0.188-0.236,0.381-0.465,0.575-0.693c1.486-1.762,3.337-3.957,3.175-8.955   c-0.05-1.553-0.229-3.032-0.386-4.337c-0.257-2.136-0.524-4.345,0.121-4.891c1.867-1.585,2.058-3.292,1.965-4.29   c4.929-1.287,16.984-4.38,21.316-4.994c0.718-0.102,1.661-0.153,2.804-0.153c6.595,0,17.367,1.707,17.476,1.724   c0.569,0.089,1.274-0.072,1.711-0.445S100,28.041,100,27.467v-5.372C100,21.13,99.17,20.309,98.217,20.158z M51.378,34.124   c-2.258,1.909-1.879,5.039-1.48,8.353c0.155,1.285,0.315,2.613,0.36,3.995c0.112,3.493-0.932,4.732-2.254,6.298   c-0.215,0.256-0.431,0.512-0.644,0.779c-0.694,0.873-1.158,1.125-1.289,1.184c-0.732,0.07-1.377,0.547-1.647,1.25l-0.528,1.377   c-0.128,0.334-0.163,0.695-0.1,1.049c0.356,1.979-1.015,3.795-1.034,3.82c-0.092,0.117-9.223,11.936-12.059,15.195   c-0.918,1.053-2.152,1.588-3.668,1.588c-0.001,0-0.001,0-0.001,0c-0.865,0-1.494-0.182-1.519-0.189   c-0.141-0.043-14.085-4.133-17.105-5.217c-1.621-0.611-3.673-1.559-4.448-2.109c0.094-0.309,0.343-0.791,0.592-1.127   c0.039-0.051,0.075-0.104,0.108-0.158c0.087-0.143,8.719-14.195,10.389-16.775c1.798-2.78,2.768-4.756,1.063-8.771   c-0.719-1.691,1.218-3.447,1.245-3.472c0.054-0.047,5.392-4.766,11.375-7.99c2.193-1.182,4.347-1.78,6.402-1.78   c1.559,0,2.488,0.364,2.49,0.364c0.624,0.271,1.344,0.202,1.905-0.189c2.039-1.423,7.501-5.211,8.887-6.105   c0.011,0.017,0.023,0.033,0.034,0.05c0.316,0.742,0.592,1.539,0.881,2.373c0.659,1.898,1.336,3.853,2.601,5.533   C51.824,33.721,51.527,33.997,51.378,34.124z M96,25.191c-4-0.516-10.84-1.433-15.914-1.433c-1.344,0-2.485,0.062-3.397,0.191   c-4.76,0.674-17.743,4.022-22.331,5.226l-0.967-2.129c4.985-1.302,16.916-4.361,21.222-4.971c0.624-0.089,1.554-0.134,2.59-0.134   c5.565,0,14.798,1.286,18.798,1.84V25.191z"/>
	<path d="M37.384,51.338c-0.614-0.676-1.213-1.226-1.716-1.579c-1.926-1.352-7.226-1.815-8.805-1.925   c-0.726-0.052-1.399,0.295-1.787,0.898l-11.901,18.57c-0.551,0.859-0.351,1.996,0.461,2.615c1.401,1.07,8.599,6.402,12.662,6.402   c0,0,0,0,0.001,0c0.345,0,0.676-0.035,0.984-0.105c5.843-1.312,13.418-11.707,13.762-17.242c0.143-2.299-1.62-5.268-3.373-7.301   C37.59,51.549,37.491,51.438,37.384,51.338z M27.741,51.844c0.413,0.04,0.819,0.088,1.219,0.138   c-0.477,0.22-0.887,0.483-1.19,0.792c-3.364,3.455-3.411,15.748-3.386,18.176c0.004,0.4,0.128,0.771,0.338,1.08   c-2.017-0.75-4.924-2.525-7.25-4.164L27.741,51.844z M28.188,71.576c0.074-0.209,0.119-0.432,0.117-0.666   c-0.063-6.219,0.788-13.873,2.204-15.338c0.495-0.336,2.572-0.674,4.651-0.783c1.083,1.424,2.02,3.17,1.972,3.939   C36.905,62.385,31.954,69.176,28.188,71.576z"/>
</g>
</svg>