<svg xmlns="http://www.w3.org/2000/svg" xmlns:xlink="http://www.w3.org/1999/xlink" version="1.1" x="0px" y="0px" width="100px" height="100px" viewBox="-346 256 100 100" enable-background="new -346 256 100 100" xml:space="preserve">
<g id="Layer_1">
	<g id="Layer_2">
	</g>
	<path d="M-317.097,342.66v7.568h-9.163c-4.434,0.031-4.441,5.724,0,5.715h12.021c1.755,0.009,2.855-1.411,2.859-3.003v-10.28   C-311.383,338.351-317.09,338.351-317.097,342.66L-317.097,342.66z"/>
	<path d="M-324.573,349.13c2.868-0.011,5.198-2.336,5.211-5.213c-0.013-2.876-2.344-5.206-5.211-5.211   c-2.883,0.005-5.212,2.335-5.209,5.211C-329.787,346.794-327.456,349.119-324.573,349.13L-324.573,349.13z"/>
	<path d="M-265.598,348.781l-17.386,0.002v-2.245c0.007-3.626-2.461-6.322-6.662-6.312h-20V356l44.037-0.007   c1.99,0.003,3.606-1.606,3.611-3.602C-261.996,350.398-263.608,348.786-265.598,348.781z"/>
	<polygon points="-332.564,329.345 -332.564,300.002 -340.41,300.002 -340.429,355.918 -332.564,355.918 -332.564,336.76    -258.492,336.76 -258.492,355.918 -250.583,355.918 -250.583,329.345  "/>
	<path d="M-293.827,265.632L-293.827,265.632l-0.011,0.011c-0.063,0.067-0.112,0.139-0.177,0.208   c-0.051,0.05-0.108,0.077-0.164,0.126c-1.095,1.013-4.747,3.745-9.75,0.882c-2.12-1.222-4.332-3.705-4.332-3.705   s2.243,0.185,3.545-0.935c0.88-0.754,1.463-2.339,1.568-2.646c0.282-0.7,0.708-1.355,1.281-1.91c2.24-2.15,5.806-2.059,7.968,0.197   C-291.794,260.059-291.796,263.458-293.827,265.632z"/>
	<path d="M-329.922,313.439h72.659c4.181-0.011,6.637,2.672,6.629,6.282v6.78h-79.288V313.439L-329.922,313.439z"/>
	<path d="M-274.259,269.51l-29.068,0.007c0,0-5.022-0.188-6.744,5.81l-4.308,15.001c-0.414,1.397,0.37,2.472,1.593,2.822   c1.223,0.354,2.475-0.263,2.797-1.386l4.189-14.622l2.042-0.005l-6.365,23.819h6.314v5.723h-11.969   c-1.325,0-2.404,1.077-2.404,2.409c0,1.326,1.079,2.404,2.404,2.404l21.559-0.007c1.282-0.055,2.311-1.1,2.311-2.396v-8.134h6.255   l-5.958-26.834h17.352C-270.771,274.123-270.771,269.51-274.259,269.51z M-296.725,306.68h-2.268v-5.723h2.268V306.68z"/>
	<path d="M-272.291,294.81v-2.372h-1.993v-3.923h1.993v-2.372c1.674-0.989,2.803-2.807,2.803-4.889c0-2.8-2.04-5.127-4.71-5.59   v1.995c1.59,0.431,2.768,1.872,2.768,3.595c0,2.062-1.676,3.74-3.737,3.74s-3.739-1.678-3.739-3.74   c0-1.723,1.179-3.164,2.769-3.595v-1.995c-2.67,0.462-4.71,2.79-4.71,5.59c0,2.108,1.157,3.948,2.868,4.929v2.332h1.93v3.923h-1.93   v2.333c-1.711,0.979-2.868,2.819-2.868,4.928c0,2.801,2.04,5.127,4.71,5.591v-1.996c-1.59-0.431-2.769-1.872-2.769-3.596   c0-2.062,1.678-3.739,3.739-3.739s3.737,1.677,3.737,3.739c0,1.725-1.178,3.165-2.768,3.596v1.996   c2.67-0.464,4.71-2.791,4.71-5.591C-269.488,297.618-270.617,295.8-272.291,294.81z"/>
</g>
<g id="Layer_3">
</g>
<g id="Layer_2_1_">
</g>
</svg>