<svg xmlns="http://www.w3.org/2000/svg" xmlns:xlink="http://www.w3.org/1999/xlink" version="1.1" id="Your_Icon" x="0px" y="0px" viewBox="0 0 100 100" enable-background="new 0 0 100 100" xml:space="preserve" height="100px" width="100px">
<g>
	<path d="M49.708,91.514c-22.959,0-41.638-18.679-41.638-41.637c0-22.959,18.679-41.638,41.638-41.638s41.638,18.679,41.638,41.638   C91.346,72.836,72.668,91.514,49.708,91.514z M49.708,10.083c-21.943,0-39.794,17.851-39.794,39.794   c0,21.942,17.851,39.793,39.794,39.793s39.794-17.851,39.794-39.793C89.502,27.934,71.651,10.083,49.708,10.083z"/>
</g>
<path d="M76.828,44.09l-3.538-3.538l3.31-3.31c0.404-0.404,0.404-1.06,0-1.464c-0.403-0.405-1.061-0.405-1.464,0l-3.31,3.31  l-3.31-3.31c-0.403-0.405-1.061-0.405-1.464,0c-0.404,0.404-0.404,1.06,0,1.464l3.31,3.31l-3.538,3.538  c-0.404,0.404-0.404,1.06,0,1.464c0.202,0.203,0.467,0.303,0.732,0.303c0.265,0,0.53-0.101,0.732-0.303l3.538-3.538l3.538,3.538  c0.202,0.203,0.467,0.303,0.732,0.303s0.53-0.101,0.732-0.303C77.232,45.15,77.232,44.494,76.828,44.09z"/>
<path d="M33.928,44.09l-3.538-3.538l3.31-3.31c0.404-0.404,0.404-1.06,0-1.464c-0.403-0.405-1.061-0.405-1.464,0l-3.31,3.31  l-3.31-3.31c-0.403-0.405-1.061-0.405-1.464,0c-0.404,0.404-0.404,1.06,0,1.464l3.31,3.31l-3.538,3.538  c-0.404,0.404-0.404,1.06,0,1.464c0.202,0.203,0.467,0.303,0.732,0.303c0.265,0,0.53-0.101,0.732-0.303l3.538-3.538l3.538,3.538  c0.202,0.203,0.467,0.303,0.732,0.303s0.53-0.101,0.732-0.303C34.333,45.15,34.333,44.494,33.928,44.09z"/>
<path d="M73.315,57.081c-2.243,0-3.404,0.835-4.429,1.574c-0.915,0.658-1.704,1.226-3.353,1.226c-1.648,0-2.438-0.568-3.353-1.226  c-1.024-0.737-2.187-1.574-4.429-1.574c-2.242,0-3.403,0.836-4.428,1.574c-0.914,0.658-1.703,1.226-3.35,1.226  c-1.646,0-2.433-0.568-3.346-1.226c-1.024-0.737-2.184-1.574-4.424-1.574c-2.24,0-3.4,0.836-4.424,1.574  c-0.913,0.658-1.701,1.226-3.345,1.226c-1.646,0-2.434-0.568-3.347-1.226c-1.024-0.737-2.185-1.574-4.425-1.574  c-0.51,0-0.922,0.412-0.922,0.922c0,0.51,0.412,0.922,0.922,0.922c1.645,0,2.433,0.568,3.346,1.226  c0.309,0.222,0.635,0.452,0.995,0.666c0,3.626,0,12.082,0,13.833c0,3.154,2.004,2.874,2.004,2.874c2.247,0,2.551-2.663,2.551-2.663  s0-5.607,0-7.569c0-2.663,2.186-2.663,2.186-2.663c2.551,0,2.365,2.663,2.365,2.663s0,4.863,0,5.704  c0,0.841,0.671,2.138,1.855,2.138c1.184,0,1.709-0.969,1.913-2.208c0.243-1.472-0.729-4.022,2.186-4.022  c2.308,0,2.126,2.944,2.126,5.957c0,2.895,2.012,2.815,2.171,2.805c0.159,0.011,2.171,0.091,2.171-2.805  c0-3.014-0.182-5.957,2.126-5.957c2.915,0,1.943,2.55,2.186,4.022c0.205,1.239,0.729,2.208,1.913,2.208  c1.184,0,1.855-1.297,1.855-2.138c0-0.841,0-5.704,0-5.704s-0.185-2.663,2.365-2.663c0,0,2.186,0,2.186,2.663  c0,1.962,0,7.569,0,7.569s0.304,2.663,2.551,2.663c0,0,2.004,0.28,2.004-2.874c0-1.837,0-11.05,0-14.327  c0.081-0.058,0.163-0.116,0.242-0.172c0.915-0.658,1.704-1.226,3.353-1.226c0.51,0,0.922-0.412,0.922-0.922  C74.237,57.493,73.824,57.081,73.315,57.081z"/>
</svg>