<svg xmlns="http://www.w3.org/2000/svg" xmlns:xlink="http://www.w3.org/1999/xlink" version="1.1" id="Layer_1" x="0px" y="0px" width="100px" height="100px" viewBox="0 0 100 100" enable-background="new 0 0 100 100" xml:space="preserve">
<path d="M48.65,8.672c-0.328,0.527-7.962,13.027-1.959,23.601c5.278,9.299,10.162,20.886,10.943,22.765l-8.987,32.463  c-0.041,0.148-0.04,0.303,0.002,0.451c0.082,0.289,2.158,7.078,13.933,7.078h7.445c0.373,0,0.701-0.248,0.801-0.607  c0.051-0.181,1.213-4.447-1.373-5.857c-1.676-0.914-6.183-2.595-7.977-3.251l8.561-28.518c0.035-0.116,0.043-0.238,0.026-0.357  l-1.684-11.786l7.96,11.94l-2.752,34.486c-0.01,0.128,0.01,0.256,0.057,0.375c0.064,0.161,1.577,3.858,4.508,3.857  c0.064,0,0.13-0.002,0.196-0.005c0.071-0.004,0.141-0.017,0.209-0.039l16.647-5.364c0.315-0.102,0.541-0.383,0.573-0.713  c0.148-1.56-0.388-4.829-3.487-6.034c-0.075-0.029-0.155-0.047-0.236-0.054l-6.089-0.481l5.913-28.672  c0.032-0.154,0.02-0.315-0.037-0.462L79.915,21.918l2.71-10.66c0.057-0.225,0.017-0.466-0.11-0.661  c-0.128-0.195-0.332-0.327-0.561-0.365c-4.975-0.822-29.94-4.793-32.859-2.31 M78.16,93.646c-1.527-0.002-2.61-2.046-2.895-2.647  l2.758-34.562c0.014-0.186-0.034-0.372-0.138-0.528L67.804,40.787c-0.053-0.178-0.149-0.334-0.293-0.439l-4.053-6.08  c-0.255-0.383-0.772-0.487-1.154-0.231c-0.383,0.255-0.486,0.772-0.231,1.154l4.168,6.252l2.15,15.049l-8.734,29.096  c-0.127,0.424,0.1,0.874,0.516,1.023c0.065,0.023,6.53,2.349,8.484,3.415c0.959,0.523,0.884,2.266,0.7,3.339h-6.775  c-9.467,0-11.846-4.629-12.262-5.672l8.994-32.487c0.05-0.178,0.038-0.367-0.031-0.538c-0.053-0.129-5.359-13.022-11.145-23.216  C42.629,21.745,49.936,9.61,50.01,9.49c0.071-0.114,0.155-0.176,0.166-0.301c1.539-1.288,16.595,0.265,30.611,2.54l-2.55,10.034  c-0.042,0.165-0.032,0.339,0.028,0.499L90.203,53.85l-6.055,29.359c-0.049,0.234,0.006,0.477,0.149,0.668  c0.143,0.191,0.362,0.311,0.601,0.329l6.902,0.545c1.957,0.826,2.288,2.797,2.329,3.75L78.16,93.646z"/>
<g>
	<path d="M15.842,36.96c-1.409,0-2.724-0.565-3.702-1.59c-0.76-0.797-1.251-1.812-1.396-2.86c-1.927-0.624-4.713-2.439-4.483-5.973   c0.237-3.651,2.414-5.051,3.521-5.53c0.076-1.47,0.594-5.079,3.803-6.12c0.546-0.177,1.097-0.267,1.637-0.267   c1.697,0,2.979,0.865,3.787,1.642c0.774-1.553,2.352-3.27,5.039-3.27c0.373,0,0.764,0.034,1.161,0.099   c0.353,0.016,1.602,0.153,2.668,1.24c0.924,0.941,1.426,2.3,1.497,4.047l11.056,3.159c0.334,0.095,0.573,0.388,0.602,0.734   c0.027,0.346-0.163,0.672-0.477,0.82l-9.957,4.672c0.207,1.647-0.18,4.308-2.818,5.92c-1.114,0.681-2.323,1.026-3.592,1.026   c-1.32,0-2.421-0.379-3.086-0.679c-0.806,0.958-2.613,2.76-4.89,2.917C16.087,36.956,15.963,36.96,15.842,36.96z M15.222,16.284   c-0.365,0-0.742,0.062-1.123,0.186c-2.775,0.9-2.664,5.055-2.663,5.097c0.014,0.399-0.257,0.753-0.646,0.842   c-0.101,0.025-2.637,0.692-2.869,4.237c-0.228,3.498,3.621,4.368,3.785,4.404c0.384,0.082,0.657,0.421,0.657,0.813   c0,0.845,0.358,1.704,0.981,2.358c0.721,0.755,1.705,1.138,2.753,1.066c2.241-0.154,4.071-2.761,4.089-2.787   c0.256-0.37,0.761-0.47,1.137-0.227c0.01,0.006,1.233,0.771,2.864,0.771c0.958,0,1.875-0.263,2.725-0.783   c2.734-1.671,1.976-4.633,1.942-4.758c-0.104-0.39,0.085-0.801,0.45-0.973l8.532-4.004l-9.517-2.719   c-0.363-0.104-0.61-0.438-0.604-0.816c0.029-1.597-0.316-2.773-1.026-3.496c-0.698-0.712-1.554-0.743-1.563-0.743   c-0.048,0-0.095-0.004-0.142-0.012c-0.324-0.056-0.639-0.085-0.936-0.085c-3.15,0-3.904,3.277-3.934,3.417   c-0.073,0.332-0.34,0.588-0.675,0.644c-0.333,0.053-0.671-0.095-0.849-0.385C18.578,18.314,17.292,16.284,15.222,16.284z"/>
</g>
<g>
	<path d="M37.98,15.586c-0.177,0-0.355-0.056-0.507-0.173l-6.474-4.994c-0.364-0.281-0.431-0.804-0.151-1.167   c0.279-0.364,0.801-0.434,1.167-0.151l6.474,4.994c0.364,0.281,0.431,0.804,0.151,1.167C38.476,15.474,38.229,15.586,37.98,15.586z   "/>
</g>
<g>
	<path d="M40.756,11.517c-0.287,0-0.566-0.148-0.72-0.413l-2.589-4.439c-0.232-0.397-0.098-0.907,0.299-1.139   c0.401-0.232,0.908-0.096,1.138,0.3l2.589,4.439c0.232,0.397,0.098,0.907-0.299,1.139C41.043,11.48,40.898,11.517,40.756,11.517z"/>
</g>
<g>
	<path d="M33.357,36.302c-0.249,0-0.496-0.112-0.66-0.324c-0.281-0.364-0.214-0.887,0.151-1.167l6.475-4.994   c0.365-0.282,0.888-0.212,1.167,0.151c0.281,0.364,0.214,0.887-0.151,1.167l-6.475,4.994   C33.713,36.246,33.534,36.302,33.357,36.302z"/>
</g>
<g>
	<path d="M40.014,39.817c-0.142,0-0.286-0.036-0.418-0.113c-0.397-0.232-0.531-0.741-0.299-1.139l2.59-4.439   c0.23-0.397,0.738-0.533,1.138-0.3c0.397,0.232,0.531,0.741,0.299,1.139l-2.59,4.439C40.58,39.669,40.3,39.817,40.014,39.817z"/>
</g>
</svg>