<svg xmlns="http://www.w3.org/2000/svg" xmlns:xlink="http://www.w3.org/1999/xlink" version="1.1" id="Calque_1" x="0px" y="0px" width="100px" height="100px" viewBox="0 0 100 100" enable-background="new 0 0 100 100" xml:space="preserve">
<g>
	<path d="M50.139,24.488c-12.507,0-24.286-0.976-33.166-2.748C6.527,19.655,1.662,16.902,1.662,13.075   c0-3.827,4.865-6.581,15.311-8.665c8.88-1.772,20.659-2.748,33.166-2.748c12.505,0,24.285,0.976,33.167,2.748   c10.443,2.084,15.309,4.837,15.309,8.665c0,3.828-4.864,6.581-15.309,8.665C74.424,23.512,62.645,24.488,50.139,24.488z    M6.037,13.075c0.265,0.403,2.173,2.609,12.822,4.604c8.483,1.588,19.592,2.463,31.279,2.463s22.795-0.875,31.279-2.463   c10.649-1.995,12.558-4.201,12.821-4.604c-0.266-0.402-2.172-2.608-12.821-4.603c-8.483-1.589-19.593-2.464-31.279-2.464   c-11.688,0-22.796,0.875-31.279,2.464C8.21,10.466,6.302,12.672,6.037,13.075z"/>
</g>
<g>
	<path d="M50.139,34.266c-16.344,0-31.31-1.673-40.032-4.477c-1.142-0.368-1.771-1.591-1.403-2.734   c0.366-1.142,1.591-1.771,2.733-1.404c8.192,2.633,23.021,4.269,38.702,4.269c16.253,0,31.351-1.725,39.398-4.5   c1.135-0.392,2.371,0.211,2.764,1.346c0.391,1.134-0.212,2.371-1.346,2.763C82.354,32.495,67.096,34.266,50.139,34.266z"/>
</g>
<g>
	<path d="M50.139,43.61c-14.253,0-27.594-1.28-36.602-3.511c-1.165-0.289-1.875-1.467-1.588-2.632   c0.289-1.165,1.468-1.875,2.633-1.587c8.682,2.15,21.642,3.384,35.557,3.384c10.47,0,20.693-0.721,28.787-2.03   c1.184-0.192,2.301,0.613,2.492,1.798c0.191,1.185-0.613,2.301-1.799,2.492C71.184,42.89,60.988,43.61,50.139,43.61z"/>
</g>
<g>
	<path d="M50.139,52.955c-15.414,0-29.896-1.525-38.739-4.083c-1.152-0.333-1.817-1.538-1.483-2.691   c0.333-1.153,1.539-1.817,2.69-1.484c8.473,2.449,22.504,3.912,37.532,3.912c6.273,0,12.351-0.248,18.063-0.737   c1.194-0.103,2.248,0.784,2.351,1.979c0.102,1.196-0.783,2.249-1.979,2.351C62.736,52.702,56.535,52.955,50.139,52.955z"/>
</g>
<g>
	<path d="M50.139,62.299c-14.253,0-27.593-1.279-36.602-3.511c-1.165-0.289-1.875-1.468-1.588-2.632   c0.289-1.165,1.468-1.875,2.633-1.588c8.682,2.15,21.642,3.449,35.557,3.449c2.06,0,4.13-0.018,6.155-0.018c0.021,0,0.039,0,0.06,0   c1.174,0,2.141,0.871,2.172,2.05c0.031,1.2-0.916,2.166-2.114,2.198C54.348,62.303,52.236,62.299,50.139,62.299z"/>
</g>
<g>
	<path d="M50.139,71.643c-2.709,0-5.423-0.047-8.066-0.138c-8.761-0.305-16.896-1.103-23.523-2.31   c-1.182-0.215-1.964-1.346-1.749-2.527c0.215-1.18,1.347-1.964,2.527-1.749c6.424,1.169,14.342,1.945,22.897,2.242   c2.593,0.09,5.254,0.136,7.914,0.136c1.199,0,2.173,0.973,2.173,2.173S51.338,71.643,50.139,71.643z"/>
</g>
<g>
	<path d="M50.139,80.986c-2.807,0-5.617-0.049-8.355-0.148c-4.927-0.177-9.656-0.511-14.058-0.99   c-1.193-0.131-2.055-1.203-1.924-2.396c0.13-1.193,1.205-2.054,2.396-1.925c4.297,0.47,8.92,0.795,13.742,0.969   c2.688,0.097,5.445,0.146,8.199,0.146c1.199,0,2.173,0.973,2.173,2.172C52.312,80.016,51.338,80.986,50.139,80.986z"/>
</g>
<g>
	<path d="M50.139,90.332c-3.386,0-6.762-0.073-10.038-0.216c-1.199-0.052-2.129-1.067-2.077-2.267   c0.054-1.197,1.062-2.129,2.267-2.076c3.213,0.142,6.526,0.211,9.849,0.211c1.359,0,1.824-0.012,2.75-0.034   c0.284-0.007,0.614-0.017,1.024-0.025c1.192-0.022,2.194,0.923,2.224,2.123c0.026,1.2-0.924,2.194-2.123,2.222   c-0.406,0.01-0.731,0.019-1.016,0.025C52.037,90.318,51.555,90.332,50.139,90.332z"/>
</g>
<g>
	<path d="M50.949,98.617c-0.445,0-0.927-0.008-1.366-0.031c-1.198-0.062-2.119-1.085-2.057-2.283   c0.063-1.199,1.089-2.121,2.283-2.057c1.078,0.057,2.563,0,2.578-0.001c1.199-0.046,2.209,0.887,2.256,2.086   s-0.888,2.209-2.086,2.256C52.512,98.589,51.795,98.617,50.949,98.617z"/>
</g>
<ellipse fill="none" stroke="#000000" stroke-width="20" stroke-linecap="round" stroke-linejoin="round" stroke-miterlimit="10" cx="-1048.259" cy="121.182" rx="213.079" ry="42.52"/>
<path fill="none" stroke="#000000" stroke-width="20" stroke-linecap="round" stroke-linejoin="round" stroke-miterlimit="10" d="  M-1229.418,188.578c37.583,12.08,104.664,20.124,181.159,20.124c78.865,0,147.724-8.55,184.567-21.259"/>
<path fill="none" stroke="#000000" stroke-width="20" stroke-linecap="round" stroke-linejoin="round" stroke-miterlimit="10" d="  M-914.189,242.23c-36.615,5.922-83.266,9.471-134.069,9.471c-67.107,0-126.97-6.19-166.027-15.866"/>
<path fill="none" stroke="#000000" stroke-width="20" stroke-linecap="round" stroke-linejoin="round" stroke-miterlimit="10" d="  M-1223.75,276.305c38.438,11.113,102.702,18.396,175.491,18.396c29.82,0,58.209-1.223,83.978-3.43"/>
<path fill="none" stroke="#000000" stroke-width="20" stroke-linecap="round" stroke-linejoin="round" stroke-miterlimit="10" d="  M-1019.666,337.322c-9.353,0.25-18.897,0.379-28.593,0.379c-67.107,0-126.97-6.19-166.027-15.866"/>
<path fill="none" stroke="#000000" stroke-width="20" stroke-linecap="round" stroke-linejoin="round" stroke-miterlimit="10" d="  M-1048.259,380.701c-12.538,0-24.823-0.217-36.767-0.631c-40.748-1.414-77.522-5.139-106.813-10.473"/>
<path fill="none" stroke="#000000" stroke-width="20" stroke-linecap="round" stroke-linejoin="round" stroke-miterlimit="10" d="  M-1048.259,423.701c-13,0-25.729-0.232-38.087-0.678c-22.788-0.82-44.315-2.363-63.966-4.508"/>
<path fill="none" stroke="#000000" stroke-width="20" stroke-linecap="round" stroke-linejoin="round" stroke-miterlimit="10" d="  M-1094.016,465.719c14.739,0.645,30.05,0.982,45.757,0.982c8.321,0,9.53-0.095,17.603-0.28"/>
<path fill="none" stroke="#000000" stroke-width="20" stroke-linecap="round" stroke-linejoin="round" stroke-miterlimit="10" d="  M-1050.291,504.701c5.468,0.286,12.77,0,12.77,0"/>
<g id="Layer_x0020_1">
	<path fill="#000000" d="M1.23,35.644c4.658,3.3,9.55,8.99,11.927,11.402c1.265,0.174,2.622,0.418,4.059,0.724   c1.61,0.346,1.556-1.42,1.934-2.349c0.375-0.918,0.584-0.667,1.246,0.062c0.734,0.811,0.941,1.811,1.637,2.56   c2.137,1.329,7.041,1.646,13.703,4.293c1.069,0.423,3.268-0.596,3.796-1.279c0.792-1.023,1.449-2.529,1.825-3.538   c0.402-1.078,1.071-0.848,1.867,0.022c1.206,1.313,2.033,5.341,2.218,7.45c0.096,1.096-0.175,0.958,0.685,1.539   c8.211,5.559,13.655,12.043,15.923,14.527c2.447,3.266,1.402,2.76-0.933,2.791c-1.843-0.309-3.663-0.107-5.562-0.914   c-2.11-0.895-4.289-1.625-6.358-2.6c-7.526,6.924-3.823-2.123-6.143-3.083c-5.089-2.105-9.706-5.401-14.082-8.104   c-3.917,0.558-4.023-0.72-5.339-3.769c-1.37-0.708-1.787-1.205-3.224-1.537c-0.45-0.104-1.049-0.123-1.469,0.084   c-0.907,0.445-1.854,0.762-2.833,0.969c-0.534,0.113-1.599,0.078-0.547-0.992c1.303-1.33-0.058-2.754-1.633-3.404   c-0.527-0.217-1.179-0.726-1.828-0.483c-2.925,1.094-4.201,2.951-6.37,3.354c0,0-4.915,0.743-0.334-2.654   c3.979-2.95-2.134-3.8-4.207-11.071c-0.397-1.394-0.07-1.002-0.914-3.13C-0.231,35.235-0.106,34.665,1.23,35.644L1.23,35.644z"/>
</g>
<g id="Layer_x0020_1_1_">
	<path fill="#000000" d="M80.484,0.422c1.496-0.892,1.57-0.282,0.912,1.006c-1.098,2.143-0.713,1.765-1.27,3.185   c-2.902,7.403-9.387,7.679-5.518,11.167c4.453,4.019-0.617,2.746-0.617,2.746c-2.232-0.64-3.381-2.712-6.332-4.15   c-0.654-0.321-1.389,0.146-1.963,0.32c-1.713,0.521-3.281,1.877-2.053,3.4c0.996,1.226-0.125,1.157-0.67,0.984   c-1.004-0.315-1.965-0.743-2.871-1.298c-0.416-0.261-1.047-0.3-1.529-0.237c-1.537,0.204-2.023,0.683-3.529,1.288   c-1.684,3.059-1.922,4.384-5.968,3.407c-4.852,2.39-10.018,5.375-15.557,7.068c-2.525,0.771,0.441,10.615-6.741,2.611   c-2.264,0.812-4.619,1.356-6.919,2.083c-2.068,0.652-3.954,0.26-5.914,0.396c-2.442-0.266-3.586,0.158-0.696-3.016   c2.625-2.372,8.975-8.614,18.131-13.607c0.959-0.523,0.661-0.404,0.872-1.542c0.406-2.19,1.675-6.323,3.071-7.578   c0.921-0.83,1.644-1.003,1.957,0.165c0.292,1.094,0.829,2.737,1.556,3.887c0.483,0.769,2.684,2.056,3.846,1.721   c7.24-2.103,12.406-1.941,14.777-3.117c0.803-0.714,1.121-1.74,1.973-2.516c0.766-0.697,1.008-0.938,1.309,0.061   c0.303,1.011,0.068,2.854,1.789,2.654c1.533-0.175,2.979-0.295,4.322-0.35C69.584,8.873,75.275,3.408,80.484,0.422L80.484,0.422z"/>
</g>
</svg>