<svg xmlns="http://www.w3.org/2000/svg" xmlns:xlink="http://www.w3.org/1999/xlink" version="1.1" id="Layer_1" x="0px" y="0px" width="100px" height="100px" viewBox="0 0 100 100" enable-background="new 0 0 100 100" xml:space="preserve">
<g>
	<path d="M42.445,78.954c-1.577,0-3.182-0.145-4.802-0.439c-0.897-0.162-1.492-1.021-1.329-1.916   c0.163-0.896,1.014-1.489,1.916-1.329c7.487,1.352,14.586-0.931,19.485-6.281c5.165-5.639,6.967-13.679,4.824-21.509   c-0.24-0.878,0.277-1.786,1.156-2.027c0.875-0.242,1.786,0.276,2.027,1.156c2.443,8.93,0.359,18.129-5.574,24.608   C55.535,76.252,49.258,78.953,42.445,78.954z"/>
</g>
<g>
	<path d="M57.784,30.988c-0.519,0-1.031-0.245-1.352-0.703C52.3,24.4,46.685,18.701,41.41,15.044   c-0.749-0.519-0.936-1.546-0.417-2.295c0.521-0.749,1.55-0.933,2.295-0.416c5.578,3.867,11.501,9.87,15.845,16.059   c0.523,0.745,0.343,1.774-0.403,2.297C58.443,30.892,58.112,30.988,57.784,30.988z"/>
</g>
<g>
	<path d="M47.359,59.49l12.74-23.586l-23.472-3.944l25.517-5.19l0.607-15.657l6.61,14.418L84.811,8.554l-7.234,19.398l12.509-1.984   l-8.938,7.141l12.811,2.15l-15.586,5.658l4.374,12.073L70.32,44.336L47.359,59.49z M54.694,31.65l10.497,1.764l-8.688,16.09   l13.867-9.152l5.738,3.996l-1.958-5.406l6.899-2.504l-7.726-1.297l4.954-3.958l-5.765,0.915l3.239-8.686l-7.31,8.033l-2.93-6.391   l-0.171,4.434L54.694,31.65z"/>
</g>
<g>
	<path d="M19.725,88.006c-3.892,0-7.998-0.833-12.146-2.517c-0.844-0.343-1.251-1.304-0.909-2.148   c0.343-0.846,1.311-1.251,2.148-0.908c9.102,3.694,17.546,2.94,23.772-2.117c6.736-5.474,9.621-15.016,7.715-25.525   c-0.164-0.896,0.432-1.753,1.329-1.916c0.9-0.164,1.753,0.433,1.916,1.329c2.125,11.71-1.196,22.429-8.88,28.673   C30.481,86.279,25.326,88.006,19.725,88.006z"/>
</g>
<g>
	<path d="M47.581,61.149"/>
</g>
</svg>