<svg xmlns="http://www.w3.org/2000/svg" xmlns:xlink="http://www.w3.org/1999/xlink" version="1.1" id="icon" x="0px" y="0px" width="100px" height="100px" viewBox="0 0 100 100" enable-background="new 0 0 100 100" xml:space="preserve">
<g id="Capa_17">
	<g>
		<g>
			<path d="M52.762,20.751l1.08-1.08c0.287-0.282,0.282-0.736,0-1.019c-0.277-0.279-0.736-0.282-1.015,0l-1.081,1.082l-1.082-1.082     c-0.279-0.279-0.736-0.279-1.02,0c-0.279,0.283-0.279,0.74,0,1.019l1.083,1.08l-1.083,1.082c-0.282,0.28-0.279,0.74,0,1.019     c0.284,0.282,0.738,0.28,1.02,0l1.082-1.082l1.081,1.082c0.276,0.28,0.735,0.282,1.022,0c0.277-0.279,0.277-0.741-0.01-1.019     L52.762,20.751z"/>
			<path d="M38.714,18.438l1.08-1.079c0.282-0.284,0.279-0.738,0-1.02c-0.282-0.279-0.736-0.283-1.02,0l-1.08,1.079l-1.082-1.079     c-0.284-0.279-0.736-0.279-1.023,0c-0.275,0.282-0.275,0.739,0,1.02l1.083,1.079l-1.083,1.082c-0.28,0.282-0.275,0.739,0,1.019     c0.287,0.284,0.74,0.282,1.023,0l1.082-1.08l1.08,1.08c0.28,0.282,0.738,0.284,1.023,0c0.279-0.28,0.279-0.74-0.003-1.019     L38.714,18.438z"/>
			<path d="M72.051,43.874c0-4.34,7.438-31.297-15.494-37.806c-22.93-6.507-35.092,18.761-33.229,20.62     c1.859,1.86,31.374,6.958,31.374,6.958l-25.41,4.03c-1.548,0.928-4.956,3.717,13.328,9.296c0,0-3.328,19.305-5.425,31     c2.432,2.416,8.67,5.02,19.164,5.02c10.848,0,17.332-3.202,19.443-5.889C74.383,65.273,72.051,46.892,72.051,43.874z      M37.695,23.628c-2.869,0-5.19-2.323-5.19-5.188c0-2.867,2.321-5.191,5.19-5.191c2.865,0,5.187,2.324,5.187,5.191     C42.882,21.305,40.561,23.628,37.695,23.628z M51.747,25.942c-2.868,0-5.189-2.323-5.189-5.189c0-2.866,2.321-5.189,5.189-5.189     c2.862,0,5.187,2.324,5.187,5.189C56.934,23.619,54.609,25.942,51.747,25.942z"/>
		</g>
		<path d="M37.073,78.648c-0.146,0.803-0.282,1.558-0.412,2.267c0.076,0.116,0.142,0.231,0.234,0.347    c2.012,2.512,8.317,5.442,19.458,5.442c12.676,0,18.629-4.177,19.795-6.654c-0.08-0.706-0.17-1.446-0.262-2.223    c-2.482,2.707-8.72,5.743-19.533,5.743C46.059,83.57,39.824,81.159,37.073,78.648z"/>
		<path d="M56.354,90.374c13.902,0,19.789-5.194,19.789-7.26h0.355c-0.053-0.485-0.109-1.005-0.175-1.554    c-2.451,3.006-9.329,6.107-19.97,6.107c-11.038,0-17.452-2.771-19.928-5.482c-0.037,0.215-0.074,0.412-0.11,0.61    c-0.088,0.724,0.154,1.468,0.761,2.226C39.06,87.491,45.295,90.374,56.354,90.374z"/>
		<path d="M56.354,91.813c-9.668,0-17.482-2.258-20.396-5.892c-0.074-0.091-0.118-0.183-0.184-0.274    c-0.053,0.271-0.102,0.51-0.141,0.678C34.738,90.352,42.314,95,56.354,95c14.047,0,20.506-5.189,20.506-7.98    c0-0.266-0.041-0.842-0.123-1.66C74.451,88.538,67.505,91.813,56.354,91.813z"/>
	</g>
</g>
</svg>